<svg width="0" height="0" class="hidden">
    <symbol clip-rule="evenodd" fill-rule="evenodd" stroke-linejoin="round" stroke-miterlimit="2"
        xmlns="http://www.w3.org/2000/svg" viewBox="0 0 24 24" id="right">
        <path
            d="m12.007 2c-5.518 0-9.998 4.48-9.998 9.998 0 5.517 4.48 9.997 9.998 9.997s9.998-4.48 9.998-9.997c0-5.518-4.48-9.998-9.998-9.998zm1.523 6.21s1.502 1.505 3.255 3.259c.147.147.22.339.22.531s-.073.383-.22.53c-1.753 1.754-3.254 3.258-3.254 3.258-.145.145-.335.217-.526.217-.192-.001-.384-.074-.531-.221-.292-.293-.294-.766-.003-1.057l1.977-1.977h-6.693c-.414 0-.75-.336-.75-.75s.336-.75.75-.75h6.693l-1.978-1.979c-.29-.289-.287-.762.006-1.054.147-.147.339-.221.53-.222.19 0 .38.071.524.215z"
            fill-rule="nonzero"></path>
    </symbol>
    <symbol xmlns="http://www.w3.org/2000/svg" viewBox="0 0 24 24" id="left">
        <path
            d="m12.012 2c5.518 0 9.997 4.48 9.997 9.998 0 5.517-4.479 9.997-9.997 9.997s-9.998-4.48-9.998-9.997c0-5.518 4.48-9.998 9.998-9.998zm-1.523 6.21s-1.502 1.505-3.255 3.259c-.147.147-.22.339-.22.531s.073.383.22.53c1.753 1.754 3.254 3.258 3.254 3.258.145.145.335.217.526.217.192-.001.384-.074.531-.221.292-.293.294-.766.003-1.057l-1.977-1.977h6.693c.414 0 .75-.336.75-.75s-.336-.75-.75-.75h-6.693l1.978-1.979c.29-.289.287-.762-.006-1.054-.147-.147-.339-.221-.53-.222-.19 0-.38.071-.524.215z"
            fill-rule="nonzero"></path>
    </symbol>
</svg>